# xmcd CD database file generated by OrangeCD 6.5
#
# Track frame offsets:
#	150
#	29169
#	53744
#	72791
#	88462
#	112303
#	147026
#	166746
#
# Disc length: 2391 seconds
#
# Revision: 2
# Processed by: cddbd v1.5.2PL0 Copyright (c) Steve Scherf et al.
# Submitted via: OrangeCD 6.5
#
DISCID=73095508
DTITLE=Breakout - 70 a
DYEAR=2005
DGENRE=Blues
TTITLE0=Skad taki duzy deszcz
TTITLE1=Przemijanie
TTITLE2=Dziwny wekend
TTITLE3=Taka droge
TTITLE4=Zapraszamy na korride
TTITLE5=Piekno
TTITLE6=Nie znasz jeszcze zycia
TTITLE7=Przestroga
EXTD=
EXTT0=
EXTT1=
EXTT2=
EXTT3=
EXTT4=
EXTT5=
EXTT6=
EXTT7=
PLAYORDER=
